<svg width="29" height="29" viewBox="0 0 29 29" fill="none" xmlns="http://www.w3.org/2000/svg">
<path d="M19.2579 14.0469H18.6562C18.4255 12.4501 16.9905 12.0078 16.1993 12.0078C14.9836 12.0078 14.5123 13.0699 14.1752 14.0469H11.2761C11.3957 13.5743 11.751 12.9141 12.8009 12.9141C13.051 12.9141 13.254 12.7111 13.254 12.4609C13.254 12.2108 13.051 12.0078 12.8009 12.0078C11.1379 12.0078 10.5094 13.1665 10.3527 14.0469H9.74229C9.49217 14.0469 9.28917 14.2499 9.28917 14.5C9.28917 14.7501 9.49217 14.9531 9.74229 14.9531H10.3527C10.5094 15.8335 11.1384 16.9922 12.8009 16.9922C14.0166 16.9922 14.4879 15.9301 14.825 14.9531H17.7336C17.4821 16.0338 16.3443 16.0846 16.1971 16.0859C15.9474 16.0868 15.7457 16.2894 15.7457 16.5391C15.7457 16.7896 15.9483 16.9922 16.1989 16.9922C16.99 16.9922 18.4251 16.5499 18.6557 14.9531H19.2579C19.5085 14.9531 19.711 14.7501 19.711 14.5C19.711 14.2499 19.5085 14.0469 19.2579 14.0469ZM16.1993 12.9141C16.3439 12.9141 17.4848 12.9521 17.7345 14.0469H15.1408C15.4118 13.3341 15.6841 12.9141 16.1993 12.9141ZM12.8009 16.0859C11.7619 16.0859 11.4039 15.4257 11.2802 14.9531H13.8594C13.5884 15.6659 13.3156 16.0859 12.8009 16.0859ZM24.4684 14.4986V3.17188C24.4684 1.37977 22.9862 0.90625 22.2028 0.90625H6.79698C5.00487 0.90625 4.53136 2.09162 4.53136 2.71875V14.4986H1.81396V19.9361H27.1862V14.4986H24.4684ZM9.03406 1.8125H19.9639C20.1737 3.69931 21.6749 5.20097 23.5622 5.41077V19.0258H20.1465C21.1706 17.7507 21.7501 16.1544 21.7501 14.5C21.7501 10.5025 18.4976 7.25 14.5001 7.25C10.5026 7.25 7.2501 10.5025 7.2501 14.5C7.2501 16.1544 7.8301 17.7507 8.85371 19.0258H5.43761V4.9658C7.42682 4.80358 8.82834 3.57063 9.03406 1.8125ZM10.0722 19.0258C8.85553 17.8413 8.15635 16.2042 8.15635 14.5C8.15635 11.0019 11.002 8.15625 14.5001 8.15625C17.9982 8.15625 20.8439 11.0019 20.8439 14.5C20.8439 16.2047 20.1447 17.8413 18.9285 19.0258H10.0722ZM23.5622 3.17188V4.495C22.176 4.29562 21.0795 3.19906 20.8797 1.8125H22.2001C22.4275 1.81522 23.5622 1.89316 23.5622 3.17188ZM6.79698 1.8125H8.1192C7.90714 3.20812 6.72131 3.91862 5.43761 4.0523V2.72509C5.44214 2.57284 5.52868 1.8125 6.79698 1.8125ZM2.72021 15.4049H4.53136V19.0294H2.72021V15.4049ZM26.28 19.0294H24.4684V15.4049H26.28V19.0294ZM17.71 23.5625H16.3516V21.2969C16.3516 21.0463 16.149 20.8438 15.8984 20.8438H12.2716C12.0215 20.8438 11.8185 21.0463 11.8185 21.2969V23.5625H10.46C10.277 23.5625 10.1116 23.6726 10.0414 23.8421C9.97112 24.0115 10.0101 24.2064 10.1397 24.336L13.7647 27.961C13.853 28.0493 13.969 28.0938 14.085 28.0938C14.201 28.0938 14.317 28.0493 14.4054 27.961L18.0304 24.336C18.16 24.2064 18.199 24.0115 18.1287 23.8421C18.0589 23.6726 17.8931 23.5625 17.71 23.5625ZM14.085 26.9999L11.5539 24.4688H12.2712C12.5213 24.4688 12.7243 24.2662 12.7243 24.0156V21.75H15.4449V24.0156C15.4449 24.2662 15.6474 24.4688 15.898 24.4688H16.6157L14.085 26.9999Z" fill="#333333"/>
</svg>
