<svg width="21" height="21" viewBox="0 0 21 21" fill="none" xmlns="http://www.w3.org/2000/svg">
<g clip-path="url(#clip0_173_154)">
<path d="M8.3125 7H1.3125C0.588875 7 0 6.41113 0 5.6875V1.3125C0 0.588875 0.588875 0 1.3125 0H8.3125C9.03613 0 9.625 0.588875 9.625 1.3125V5.6875C9.625 6.41113 9.03613 7 8.3125 7ZM1.3125 0.875C1.07187 0.875 0.875 1.071 0.875 1.3125V5.6875C0.875 5.929 1.07187 6.125 1.3125 6.125H8.3125C8.55313 6.125 8.75 5.929 8.75 5.6875V1.3125C8.75 1.071 8.55313 0.875 8.3125 0.875H1.3125Z" fill="#333333"/>
<path d="M8.3125 21H1.3125C0.588875 21 0 20.4111 0 19.6875V10.0625C0 9.33887 0.588875 8.75 1.3125 8.75H8.3125C9.03613 8.75 9.625 9.33887 9.625 10.0625V19.6875C9.625 20.4111 9.03613 21 8.3125 21ZM1.3125 9.625C1.07187 9.625 0.875 9.821 0.875 10.0625V19.6875C0.875 19.929 1.07187 20.125 1.3125 20.125H8.3125C8.55313 20.125 8.75 19.929 8.75 19.6875V10.0625C8.75 9.821 8.55313 9.625 8.3125 9.625H1.3125Z" fill="#333333"/>
<path d="M19.6875 21H12.6875C11.9639 21 11.375 20.4111 11.375 19.6875V15.3125C11.375 14.5889 11.9639 14 12.6875 14H19.6875C20.4111 14 21 14.5889 21 15.3125V19.6875C21 20.4111 20.4111 21 19.6875 21ZM12.6875 14.875C12.4469 14.875 12.25 15.071 12.25 15.3125V19.6875C12.25 19.929 12.4469 20.125 12.6875 20.125H19.6875C19.9281 20.125 20.125 19.929 20.125 19.6875V15.3125C20.125 15.071 19.9281 14.875 19.6875 14.875H12.6875Z" fill="#333333"/>
<path d="M19.6875 12.25H12.6875C11.9639 12.25 11.375 11.6611 11.375 10.9375V1.3125C11.375 0.588875 11.9639 0 12.6875 0H19.6875C20.4111 0 21 0.588875 21 1.3125V10.9375C21 11.6611 20.4111 12.25 19.6875 12.25ZM12.6875 0.875C12.4469 0.875 12.25 1.071 12.25 1.3125V10.9375C12.25 11.179 12.4469 11.375 12.6875 11.375H19.6875C19.9281 11.375 20.125 11.179 20.125 10.9375V1.3125C20.125 1.071 19.9281 0.875 19.6875 0.875H12.6875Z" fill="#333333"/>
</g>
<defs>
<clipPath id="clip0_173_154">
<rect width="21" height="21" fill="white"/>
</clipPath>
</defs>
</svg>
