<svg width="25" height="25" viewBox="0 0 25 25" fill="none" xmlns="http://www.w3.org/2000/svg">
<g clip-path="url(#clip0_173_163)">
<path d="M1.1397 7.35286C0.735288 7.57344 0.624994 8.08815 0.845582 8.49256L1.54411 9.66903C1.7647 10.0734 2.27941 10.1837 2.68382 9.96315L3.41911 9.55874C3.52941 9.48521 3.60293 9.74256 4.44852 10.1102C4.48529 10.1102 4.52205 10.147 4.52205 10.1837V11.0293C4.52205 11.4705 4.8897 11.8382 5.33088 11.8382H6.72793C7.16911 11.8382 7.53676 11.4705 7.53676 11.0293V10.1837C7.53676 10.0367 7.83088 10.0734 8.52941 9.55874C8.6397 9.48521 8.67646 9.5955 9.37499 9.96315C9.7794 10.1837 10.2573 10.0734 10.5147 9.66903L11.2132 8.49256C11.4338 8.08815 11.3235 7.57344 10.9191 7.35286C10.8823 7.31609 10.1471 6.91168 10.1838 6.91168C10.0735 6.83815 10.1838 6.87491 10.1838 6.28668C10.1838 5.73521 10.1103 5.69844 10.1838 5.66168L10.9191 5.2205C11.3235 4.99991 11.4338 4.48521 11.2132 4.0808L10.5147 2.86756C10.2941 2.46315 9.7794 2.35286 9.37499 2.57344L8.6397 3.01462C8.5294 3.08815 8.38235 2.79403 7.64705 2.46315C7.61029 2.46315 7.57352 2.42638 7.57352 2.38962V1.5808C7.57352 1.13962 7.20588 0.771973 6.7647 0.771973H5.36764C4.92646 0.771973 4.55882 1.13962 4.55882 1.5808V2.42638C4.55882 2.53668 4.2647 2.53668 3.60293 3.05138C3.56617 3.08815 3.52941 3.08815 3.49264 3.05138L2.75735 2.61021C2.24264 2.38962 1.7647 2.53668 1.54411 2.90433L0.845582 4.11756C0.624994 4.52197 0.772052 5.03668 1.1397 5.25727C2.3897 5.99256 1.72793 5.29403 1.91176 6.87491C1.94852 6.87491 1.83823 6.91168 1.1397 7.35286ZM2.64705 5.8455C2.68382 5.51462 2.53676 5.18374 2.24264 5.03668L1.50735 4.5955C1.47058 4.5955 1.47058 4.52197 1.47058 4.48521L2.16911 3.27197C2.20588 3.23521 2.24264 3.23521 2.31617 3.27197L3.05146 3.71315C3.34558 3.89697 3.71323 3.86021 3.97058 3.63962C4.19117 3.4558 4.44852 3.30874 4.70588 3.19844C5.03676 3.05138 5.22058 2.75727 5.22058 2.42638V1.5808C5.22058 1.54403 5.25735 1.50727 5.29411 1.50727H6.69117C6.72793 1.50727 6.7647 1.54403 6.7647 1.5808V2.42638C6.7647 2.75727 6.98529 3.05138 7.2794 3.19844C7.53676 3.30874 7.79411 3.4558 8.0147 3.63962C8.30882 3.86021 8.6397 3.86021 8.93382 3.71315L9.66911 3.27197C9.70587 3.23521 9.7794 3.27197 9.7794 3.30874C10.4779 4.55874 10.5147 4.52197 10.4779 4.55874C10.4779 4.63227 10.4412 4.5955 9.70588 5.03668C9.41176 5.2205 9.2647 5.51462 9.30146 5.8455C9.33823 6.06609 9.33823 6.4705 9.30146 6.76462C9.2647 7.0955 9.41176 7.38962 9.70588 7.57344C10.4412 8.01462 10.4779 7.97786 10.4779 8.05138V8.12491C9.74264 9.33815 9.81617 9.33815 9.74264 9.37491C9.66911 9.37491 9.66911 9.33815 8.93382 8.93374C8.6397 8.74991 8.27205 8.78668 8.0147 9.00727C7.79411 9.19109 7.53676 9.33815 7.2794 9.44844C6.94852 9.55874 6.72793 9.88962 6.72793 10.2205V11.0293C6.72793 11.0661 6.69117 11.1029 6.65441 11.1029H5.25735C5.22058 11.1029 5.18382 11.0661 5.18382 11.0293V10.1837C5.18382 9.85286 4.96323 9.55874 4.66911 9.41168C4.41176 9.30138 4.15441 9.15433 3.93382 8.9705C3.67646 8.78668 3.30882 8.74991 3.05146 8.93374C2.31617 9.33815 2.31617 9.37491 2.24264 9.37491C2.16911 9.37491 2.20588 9.33815 1.50735 8.12491C1.47058 8.08815 1.47058 8.01462 1.50735 7.97786L2.24264 7.53668C2.53676 7.35286 2.68382 7.05874 2.64705 6.72785C2.61029 6.43374 2.61029 6.17638 2.64705 5.8455Z" fill="#333333"/>
<path d="M5.99265 8.56586C7.24265 8.56586 8.23529 7.57321 8.23529 6.32321C8.23529 5.07321 7.20588 4.08057 5.99265 4.08057C4.74265 4.08057 3.75 5.07321 3.75 6.32321C3.75 7.53645 4.77941 8.56586 5.99265 8.56586ZM5.99265 4.7791C6.80147 4.7791 7.5 5.44086 7.5 6.28645C7.5 7.13204 6.83824 7.7938 5.99265 7.7938C5.14706 7.7938 4.48529 7.09527 4.48529 6.28645C4.48529 5.47763 5.18382 4.7791 5.99265 4.7791Z" fill="#333333"/>
<path d="M2.05885 15.9927C11.875 14.853 18.0147 7.94125 19.853 5.58831L19.9633 6.76478C20 6.9486 20.1471 7.13243 20.3677 7.09566C20.5515 7.0589 20.7353 6.91184 20.6986 6.69125C20.625 5.88243 20.5147 4.66919 20.478 4.5589C20.4412 4.33831 20.2574 4.22801 20.0736 4.26478L17.7941 4.52213C17.6103 4.5589 17.4633 4.74272 17.4633 4.92654C17.5 5.11037 17.6839 5.25743 17.8677 5.25743L19.3015 5.0736C17.6103 7.27949 11.6544 14.1545 1.94856 15.2574C1.76473 15.2942 1.61768 15.478 1.61768 15.6618C1.69121 15.8824 1.87503 16.0295 2.05885 15.9927Z" fill="#333333"/>
<path d="M24.2648 20.1839C24.2648 17.7207 22.1324 15.8825 19.7427 16.1398V10.331H21.1765V14.8898C21.1765 15.1104 21.3236 15.2575 21.5442 15.2575C21.7648 15.2575 21.9118 15.1104 21.9118 14.8898V9.96335C21.9118 9.74276 21.7648 9.5957 21.5442 9.5957H19.3751C19.1545 9.5957 19.0074 9.74276 19.0074 9.96335V16.2869C18.4927 16.4339 17.978 16.6913 17.5736 17.0589V12.4266C17.5736 12.206 17.4265 12.0589 17.2059 12.0589H15.0368C14.8162 12.0589 14.6692 12.206 14.6692 12.4266V23.5295H13.2354V19.2281C13.2354 19.0075 13.0883 18.8604 12.8677 18.8604C12.6471 18.8604 12.5001 19.0075 12.5001 19.2281V23.5295H11.0662V15.2575H12.5001V17.3531C12.5001 17.5736 12.6471 17.7207 12.8677 17.7207C13.0883 17.7207 13.2354 17.5736 13.2354 17.3531V14.8898C13.2354 14.6692 13.0883 14.5222 12.8677 14.5222H10.6986C10.478 14.5222 10.3309 14.6692 10.3309 14.8898V23.5295H8.89712V17.3898C8.89712 17.1692 8.75006 17.0222 8.52947 17.0222H6.36035C6.13976 17.0222 5.9927 17.1692 5.9927 17.3898V23.5295H4.55888V19.1178C4.55888 18.8972 4.41182 18.7501 4.19123 18.7501H2.02212C1.80153 18.7501 1.65447 18.8972 1.65447 19.1178V23.5295H1.103C0.88241 23.5295 0.735352 23.6766 0.735352 23.8972C0.735352 24.1178 0.88241 24.2648 1.103 24.2648H23.8971C24.1177 24.2648 24.2648 24.1178 24.2648 23.8972C24.2648 23.6766 24.1177 23.5295 23.8971 23.5295H22.5368C23.5662 22.7942 24.2648 21.581 24.2648 20.1839ZM3.82359 23.5295H2.38976V19.4854H3.82359V23.5295ZM8.16182 23.5295H6.728V17.7575H8.16182V23.5295ZM15.4045 23.5295V12.7942H16.8383V17.831C16.3604 18.4928 16.103 19.3384 16.103 20.1839C16.103 21.5075 16.728 22.7207 17.8677 23.5295C17.7942 23.5295 15.2942 23.5295 15.4045 23.5295ZM20.2574 23.5295C18.4559 23.5663 16.8383 22.1325 16.8383 20.1839C16.8383 18.4192 18.2354 16.8384 20.1839 16.8384C22.0221 16.8384 23.4927 18.3825 23.5295 20.1839C23.5295 22.0589 22.0221 23.4928 20.2574 23.5295Z" fill="#333333"/>
<path d="M21.3236 20.8453C21.7648 20.11 21.3971 19.1542 20.5515 18.8968V17.6836C20.5515 17.463 20.4045 17.3159 20.1839 17.3159C19.9633 17.3159 19.8162 17.4997 19.8162 17.6836V18.8968C19.2648 19.0439 18.8604 19.5586 18.8604 20.1836C18.8604 21.1394 19.8898 21.8012 20.7721 21.36L21.2868 21.8747C21.4339 22.0218 21.6545 22.0218 21.8015 21.8747C21.9486 21.7277 21.9486 21.5071 21.8015 21.36L21.3236 20.8453ZM20.1839 20.7718C19.853 20.7718 19.5956 20.5144 19.5956 20.1836C19.5956 19.8527 19.853 19.5953 20.1839 19.5953C20.5148 19.5953 20.7721 19.8527 20.7721 20.1836C20.7721 20.5144 20.5148 20.7718 20.1839 20.7718Z" fill="#333333"/>
</g>
<defs>
<clipPath id="clip0_173_163">
<rect width="25" height="25" fill="white"/>
</clipPath>
</defs>
</svg>
