<svg width="32" height="33" viewBox="0 0 32 33" fill="none" xmlns="http://www.w3.org/2000/svg">
<g clip-path="url(#clip0_176_189)" filter="url(#filter0_d_176_189)">
<path d="M17.12 25H14.88C14.123 25 13.484 24.4094 13.394 23.625L13.155 21.6708C12.678 21.5094 12.218 21.3104 11.781 21.0781L10.287 22.2875C9.681 22.776 8.828 22.7198 8.302 22.1562L6.727 20.5156C6.19 19.9729 6.136 19.0844 6.605 18.4542L7.766 16.8969C7.542 16.4417 7.351 15.9625 7.197 15.4656L5.317 15.2167C4.567 15.1208 4 14.4552 4 13.6667V11.3333C4 10.5448 4.567 9.87917 5.32 9.78542L7.196 9.53646C7.351 9.03958 7.542 8.56042 7.765 8.10521L6.605 6.54896C6.135 5.91771 6.19 5.02812 6.732 4.48021L8.307 2.83958C8.828 2.28021 9.682 2.225 10.286 2.7125L11.78 3.92292C12.217 3.69062 12.677 3.49167 13.155 3.33021L13.394 1.37187C13.484 0.590625 14.123 0 14.88 0H17.12C17.877 0 18.516 0.590625 18.606 1.375L18.845 3.32917C19.323 3.49062 19.783 3.68958 20.22 3.92188L21.714 2.7125C22.321 2.22396 23.173 2.28021 23.699 2.84479L25.274 4.48542C25.811 5.02813 25.865 5.91667 25.396 6.54687L24.235 8.10417C24.459 8.55937 24.65 9.03854 24.804 9.53542L26.684 9.78437C27.433 9.87917 28 10.5448 28 11.3333V13.6667C28 14.4552 27.433 15.1208 26.68 15.2146L24.804 15.4635C24.649 15.9604 24.458 16.4396 24.235 16.8948L25.396 18.451C25.866 19.0823 25.811 19.9708 25.269 20.5187L23.694 22.1594C23.173 22.7188 22.319 22.776 21.715 22.2865L20.22 21.0771C19.783 21.3104 19.323 21.5094 18.846 21.6698L18.607 23.6281C18.516 24.4094 17.877 25 17.12 25ZM11.73 19.9375C11.813 19.9375 11.898 19.9594 11.974 20.0031C12.525 20.324 13.122 20.5823 13.748 20.7698C13.94 20.8271 14.081 20.9979 14.106 21.2042L14.386 23.4958C14.416 23.7573 14.633 23.9583 14.88 23.9583H17.12C17.367 23.9583 17.584 23.7573 17.613 23.501L17.894 21.2052C17.919 20.999 18.06 20.8281 18.252 20.7708C18.878 20.5833 19.475 20.325 20.026 20.0042C20.201 19.9021 20.419 19.9198 20.576 20.0479L22.326 21.4646C22.527 21.6271 22.809 21.6135 22.981 21.4292L24.566 19.7781C24.747 19.5948 24.761 19.301 24.605 19.0906L23.245 17.2677C23.122 17.1031 23.105 16.8771 23.203 16.6948C23.511 16.1208 23.759 15.499 23.939 14.8469C23.994 14.6469 24.158 14.5 24.356 14.474L26.556 14.1823C26.807 14.15 27 13.924 27 13.6667V11.3333C27 11.076 26.807 10.85 26.561 10.8198L24.357 10.5271C24.159 10.501 23.995 10.3542 23.94 10.1542C23.76 9.50208 23.512 8.88021 23.204 8.30625C23.106 8.12396 23.122 7.89792 23.246 7.73333L24.606 5.91042C24.763 5.7 24.749 5.40625 24.573 5.22917L22.988 3.57812C22.813 3.38854 22.53 3.37396 22.328 3.5375L20.578 4.95417C20.419 5.08229 20.202 5.1 20.027 4.99792C19.478 4.67708 18.881 4.41979 18.253 4.23125C18.061 4.17396 17.92 4.00312 17.895 3.79687L17.615 1.50521C17.584 1.24271 17.367 1.04167 17.12 1.04167H14.88C14.633 1.04167 14.416 1.24271 14.387 1.49896L14.106 3.79479C14.081 4.00104 13.94 4.17187 13.748 4.23021C13.12 4.41771 12.523 4.67604 11.974 4.99583C11.799 5.09896 11.582 5.08021 11.423 4.95312L9.673 3.53646C9.471 3.37292 9.19 3.3875 9.019 3.57083L7.434 5.22292C7.253 5.40625 7.239 5.7 7.395 5.91042L8.755 7.73333C8.878 7.89792 8.895 8.12396 8.797 8.30625C8.488 8.88021 8.241 9.50208 8.061 10.1542C8.006 10.3542 7.842 10.501 7.644 10.5271L5.444 10.8187C5.193 10.85 5 11.076 5 11.3333V13.6667C5 13.924 5.193 14.15 5.439 14.1802L7.643 14.4729C7.841 14.499 8.005 14.6458 8.06 14.8458C8.24 15.4979 8.488 16.1198 8.796 16.6937C8.894 16.876 8.878 17.1021 8.754 17.2667L7.394 19.0896C7.237 19.3 7.251 19.5937 7.427 19.7708L9.012 21.4219C9.187 21.6104 9.468 21.625 9.672 21.4625L11.422 20.0458C11.513 19.975 11.621 19.9375 11.73 19.9375Z" fill="#333333"/>
<path d="M16 17.7082C13.243 17.7082 11 15.3717 11 12.4998C11 9.62796 13.243 7.2915 16 7.2915C18.757 7.2915 21 9.62796 21 12.4998C21 15.3717 18.757 17.7082 16 17.7082ZM16 8.33317C13.794 8.33317 12 10.2019 12 12.4998C12 14.7978 13.794 16.6665 16 16.6665C18.206 16.6665 20 14.7978 20 12.4998C20 10.2019 18.206 8.33317 16 8.33317Z" fill="#333333"/>
</g>
<defs>
<filter id="filter0_d_176_189" x="0" y="0" width="32" height="33" filterUnits="userSpaceOnUse" color-interpolation-filters="sRGB">
<feFlood flood-opacity="0" result="BackgroundImageFix"/>
<feColorMatrix in="SourceAlpha" type="matrix" values="0 0 0 0 0 0 0 0 0 0 0 0 0 0 0 0 0 0 127 0" result="hardAlpha"/>
<feOffset dy="4"/>
<feGaussianBlur stdDeviation="2"/>
<feComposite in2="hardAlpha" operator="out"/>
<feColorMatrix type="matrix" values="0 0 0 0 0 0 0 0 0 0 0 0 0 0 0 0 0 0 0.25 0"/>
<feBlend mode="normal" in2="BackgroundImageFix" result="effect1_dropShadow_176_189"/>
<feBlend mode="normal" in="SourceGraphic" in2="effect1_dropShadow_176_189" result="shape"/>
</filter>
<clipPath id="clip0_176_189">
<rect width="24" height="25" fill="white" transform="translate(4)"/>
</clipPath>
</defs>
</svg>
