<svg width="23" height="24" viewBox="0 0 23 24" fill="none" xmlns="http://www.w3.org/2000/svg">
<path d="M20.1251 12.7499C19.9411 12.7499 19.7575 12.6768 19.6169 12.5302L14.7884 7.49207C14.5077 7.1992 14.5077 6.72445 14.7884 6.43157C15.0691 6.1387 15.524 6.1387 15.8047 6.43157L20.6333 11.4697C20.9139 11.7626 20.9139 12.2373 20.6333 12.5302C20.4927 12.6764 20.3091 12.7499 20.1251 12.7499Z" fill="#333333"/>
<path d="M15.2965 17.788C15.1125 17.788 14.9289 17.7149 14.7884 17.5683C14.5077 17.2754 14.5077 16.8007 14.7884 16.5078L19.6169 11.4697C19.8976 11.1768 20.3526 11.1768 20.6333 11.4697C20.9139 11.7625 20.9139 12.2373 20.6333 12.5302L15.8051 17.5683C15.6645 17.7145 15.4805 17.788 15.2965 17.788Z" fill="#333333"/>
<path d="M20.125 12.75H6.46875C6.072 12.75 5.75 12.414 5.75 12C5.75 11.586 6.072 11.25 6.46875 11.25H20.125C20.5218 11.25 20.8438 11.586 20.8438 12C20.8438 12.414 20.5218 12.75 20.125 12.75Z" fill="#333333"/>
<path d="M3.59375 21.75C2.80097 21.75 2.15625 21.0773 2.15625 20.25C2.15625 19.836 2.47825 19.5 2.875 19.5C3.27175 19.5 3.59375 19.836 3.59375 20.25V20.2511C3.9905 20.2511 4.3125 20.5864 4.3125 21.0007C4.3125 21.4151 3.9905 21.75 3.59375 21.75Z" fill="#333333"/>
<path d="M8.625 21.75H3.59375C3.197 21.75 2.875 21.414 2.875 21C2.875 20.586 3.197 20.25 3.59375 20.25H8.625C9.02175 20.25 9.34375 20.586 9.34375 21C9.34375 21.414 9.02175 21.75 8.625 21.75Z" fill="#333333"/>
<path d="M2.875 21C2.47825 21 2.15625 20.664 2.15625 20.25V3.75C2.15625 3.336 2.47825 3 2.875 3C3.27175 3 3.59375 3.336 3.59375 3.75V20.25C3.59375 20.664 3.27175 21 2.875 21Z" fill="#333333"/>
<path d="M2.87464 4.5C2.47753 4.5 2.15625 4.164 2.15625 3.75C2.15625 2.92275 2.80097 2.25 3.59375 2.25C3.9905 2.25 4.3125 2.586 4.3125 3C4.3125 3.414 3.9905 3.75 3.59375 3.75H3.59267C3.59267 4.164 3.27175 4.5 2.87464 4.5Z" fill="#333333"/>
<path d="M8.625 3.75H3.59375C3.197 3.75 2.875 3.414 2.875 3C2.875 2.586 3.197 2.25 3.59375 2.25H8.625C9.02175 2.25 9.34375 2.586 9.34375 3C9.34375 3.414 9.02175 3.75 8.625 3.75Z" fill="#333333"/>
</svg>
