<svg width="20" height="20" viewBox="0 0 20 20" fill="none" xmlns="http://www.w3.org/2000/svg">
<path d="M7.50144 2.76454C7.52788 2.74965 7.52099 2.74032 7.61388 2.7841C7.70677 2.8281 7.85433 2.94254 7.99921 3.09943C8.28833 3.41588 8.57855 3.89521 8.72966 4.21165C8.73433 4.2221 8.7401 4.23121 8.74566 4.24032C9.17188 4.97499 9.35544 5.5361 9.36122 5.88943C9.36722 6.24188 9.27322 6.3941 8.97366 6.5661L8.19899 7.01188C7.69499 7.30188 7.45722 7.82165 7.3981 8.30654C7.33855 8.79165 7.42722 9.26299 7.64299 9.63565L9.55188 12.9259C9.76899 13.2977 10.1357 13.6097 10.5874 13.8012C11.0392 13.993 11.6105 14.0472 12.1143 13.7574L12.8899 13.3139C13.1894 13.1419 13.3681 13.137 13.6723 13.3183C13.9774 13.4997 14.3732 13.9374 14.7994 14.6717C14.8054 14.6823 14.8112 14.6914 14.8181 14.7019C15.0177 14.9894 15.2894 15.4792 15.4205 15.887C15.4857 16.0901 15.5112 16.2737 15.503 16.3765C15.4939 16.4783 15.4917 16.4668 15.4648 16.4828L14.877 16.8201C13.3992 17.4623 12.0454 17.3179 10.8345 16.6885C9.6201 16.059 8.56455 14.919 7.82988 13.5819C7.82722 13.5794 7.82633 13.5759 7.82388 13.5739L6.21499 10.7999C6.21366 10.7963 6.21144 10.7941 6.21033 10.7903C5.41388 9.48899 4.94721 8.00943 5.00499 6.64921C5.06321 5.29099 5.61699 4.05188 6.9161 3.09899L7.50144 2.76454ZM7.97277 2.02677C7.71833 1.90788 7.36766 1.87299 7.08077 2.03832L6.45877 2.39632C6.44455 2.40432 6.43188 2.41254 6.41921 2.42054C4.92144 3.51654 4.23166 5.0421 4.16455 6.61499C4.09677 8.18699 4.6221 9.80943 5.48922 11.2277L7.09033 13.9854C7.09122 13.9854 7.09255 13.9854 7.09255 13.9865L7.09477 13.9937C7.89588 15.4454 9.04433 16.705 10.4445 17.4325C11.847 18.1603 13.5179 18.329 15.221 17.5863C15.2361 17.5805 15.2501 17.5737 15.2639 17.5665L15.8863 17.2088C16.1732 17.0434 16.3181 16.7261 16.3417 16.4477C16.3659 16.1681 16.3092 15.8992 16.2232 15.6321C16.0548 15.1043 15.7632 14.5943 15.5205 14.2417C15.061 13.4541 14.6199 12.9057 14.1079 12.6008C13.5923 12.2937 12.9734 12.2981 12.4685 12.5881L11.693 13.0328C11.4643 13.1643 11.1981 13.1503 10.9183 13.0317C10.6374 12.9125 10.3788 12.6737 10.2812 12.5072L8.37233 9.21699C8.27588 9.05077 8.19833 8.70765 8.23433 8.40743C8.27122 8.10588 8.39188 7.87054 8.62055 7.73877L9.39388 7.2941C9.89899 7.00432 10.2137 6.47432 10.2041 5.87588C10.1937 5.28143 9.93722 4.6241 9.47833 3.83165C9.29255 3.44854 8.99566 2.94277 8.62277 2.5361C8.43366 2.32899 8.22699 2.14565 7.97277 2.02677Z" fill="#333333"/>
</svg>
