<svg width="26" height="28" viewBox="0 0 26 28" fill="none" xmlns="http://www.w3.org/2000/svg">
<path d="M17.5937 21.4386H17.0127C16.79 19.8968 15.4044 19.4698 14.6405 19.4698C13.4667 19.4698 13.0117 20.4953 12.6862 21.4386H9.8871C10.0026 20.9823 10.3456 20.3448 11.3593 20.3448C11.6008 20.3448 11.7968 20.1493 11.7968 19.9073C11.7968 19.6654 11.6008 19.4698 11.3593 19.4698C9.75366 19.4698 9.14685 20.5885 8.99547 21.4386H8.40616C8.16466 21.4386 7.96866 21.6341 7.96866 21.8761C7.96866 22.118 8.16466 22.3136 8.40616 22.3136H8.99547C9.14685 23.1636 9.7541 24.2823 11.3593 24.2823C12.5331 24.2823 12.9881 23.2568 13.3136 22.3136H16.1219C15.8791 23.357 14.7805 23.406 14.6383 23.4073C14.3973 23.4082 14.2026 23.6038 14.2026 23.8448C14.2026 24.0868 14.3982 24.2823 14.6401 24.2823C15.404 24.2823 16.7895 23.8553 17.0122 22.3136H17.5937C17.8356 22.3136 18.0312 22.118 18.0312 21.8761C18.0312 21.6341 17.8356 21.4386 17.5937 21.4386ZM14.6405 20.3448C14.7801 20.3448 15.8817 20.382 16.1228 21.4386H13.6185C13.8802 20.75 14.1431 20.3448 14.6405 20.3448ZM11.3593 23.4073C10.3561 23.4073 10.0105 22.7699 9.89103 22.3136H12.3813C12.1197 23.0018 11.8563 23.4073 11.3593 23.4073ZM22.6245 21.8743V10.9386C22.6245 9.20827 21.1934 8.75109 20.437 8.75109H5.56241C3.8321 8.75109 3.37491 9.89559 3.37491 10.5011V21.8743H0.751221V27.1243H25.2486V21.8743H22.6245ZM7.72235 9.62609H18.2753C18.4778 11.4478 19.9273 12.8977 21.7495 13.1003V26.2458H18.4516C19.4403 25.0147 19.9999 23.4734 19.9999 21.8761C19.9999 18.0165 16.8595 14.8761 12.9999 14.8761C9.14028 14.8761 5.99991 18.0165 5.99991 21.8761C5.99991 23.4734 6.55991 25.0147 7.54822 26.2458H4.24991V12.6706C6.17053 12.514 7.52372 11.3236 7.72235 9.62609ZM8.72466 26.2458C7.54997 25.1022 6.87491 23.5215 6.87491 21.8761C6.87491 18.4986 9.62241 15.7511 12.9999 15.7511C16.3774 15.7511 19.1249 18.4986 19.1249 21.8761C19.1249 23.522 18.4498 25.1022 17.2756 26.2458H8.72466ZM21.7495 10.9386V12.2161C20.4112 12.0231 19.3524 10.9644 19.1595 9.62609H20.4343C20.654 9.62871 21.7495 9.70396 21.7495 10.9386ZM5.56241 9.62609H6.83903C6.63428 10.9736 5.48935 11.6596 4.24991 11.7886V10.5072C4.25428 10.3602 4.33785 9.62609 5.56241 9.62609ZM1.62622 22.7493H3.37491V26.2493H1.62622V22.7493ZM24.3736 26.2493H22.6245V22.7493H24.3736V26.2493ZM9.09916 5.25109H10.4108V7.43859C10.4108 7.68009 10.6068 7.87609 10.8483 7.87609H14.35C14.592 7.87609 14.7875 7.68009 14.7875 7.43859V5.25109H16.0992H16.1079C16.3498 5.25109 16.5454 5.05509 16.5454 4.81359C16.5454 4.66615 16.4728 4.53577 16.3612 4.45659L12.9085 1.00427C12.7374 0.833211 12.4609 0.833211 12.2898 1.00427L8.78985 4.50427C8.66472 4.6294 8.6271 4.81752 8.69491 4.98115C8.76272 5.14434 8.92241 5.25109 9.09916 5.25109ZM12.5992 1.93221L15.043 4.37609H14.35C14.1081 4.37609 13.9125 4.57209 13.9125 4.81359V7.00109H11.2858V4.81359C11.2858 4.57209 11.0898 4.37609 10.8483 4.37609H10.1557L12.5992 1.93221Z" fill="#333333"/>
</svg>
